<?xml version="1.0" encoding="UTF-8"?>
<svg xmlns="http://www.w3.org/2000/svg" xmlns:xlink="http://www.w3.org/1999/xlink" width="5000" height="5000" viewBox="0 0 5000 5000">
<defs>
<clipPath id="clip-0">

</clipPath>
<clipPath id="clip-1">
<path clip-rule="nonzero" d="M 2355.210938 1960.988281 C 2627.539062 1971.539062 2849.410156 2082.621094 3049.96875 2251.199219 L 2413.648438 2251.199219 C 2394.390625 2155.539062 2375.828125 2063.328125 2355.210938 1960.988281 Z M 2355.210938 1960.988281 "/>
</clipPath>
<clipPath id="clip-2">
<path clip-rule="nonzero" d="M 2355.210938 1960.988281 C 2627.539062 1971.539062 2849.410156 2082.621094 3049.96875 2251.199219 L 2413.648438 2251.199219 C 2394.390625 2155.539062 2375.828125 2063.328125 2355.210938 1960.988281 "/>
</clipPath>
<linearGradient id="linear-pattern-0" gradientUnits="userSpaceOnUse" x1="0.39624" y1="0" x2="0.91312" y2="0" gradientTransform="matrix(1397.7, 343.6, -343.6, 1397.7, 1771.96, 1944.54)">
<stop offset="0" stop-color="rgb(74.621582%, 91.555786%, 92.732239%)" stop-opacity="1"/>
<stop offset="0.015625" stop-color="rgb(74.810791%, 91.615295%, 92.739868%)" stop-opacity="1"/>
<stop offset="0.03125" stop-color="rgb(75.189209%, 91.737366%, 92.755127%)" stop-opacity="1"/>
<stop offset="0.046875" stop-color="rgb(75.567627%, 91.859436%, 92.802429%)" stop-opacity="1"/>
<stop offset="0.0625" stop-color="rgb(75.917053%, 91.97998%, 92.99469%)" stop-opacity="1"/>
<stop offset="0.078125" stop-color="rgb(76.100159%, 92.045593%, 93.147278%)" stop-opacity="1"/>
<stop offset="0.09375" stop-color="rgb(76.309204%, 92.112732%, 93.156433%)" stop-opacity="1"/>
<stop offset="0.109375" stop-color="rgb(76.687622%, 92.234802%, 93.17627%)" stop-opacity="1"/>
<stop offset="0.125" stop-color="rgb(77.064514%, 92.364502%, 93.370056%)" stop-opacity="1"/>
<stop offset="0.15625" stop-color="rgb(77.435303%, 92.49115%, 93.560791%)" stop-opacity="1"/>
<stop offset="0.171875" stop-color="rgb(77.806091%, 92.610168%, 93.57605%)" stop-opacity="1"/>
<stop offset="0.1875" stop-color="rgb(78.184509%, 92.732239%, 93.592834%)" stop-opacity="1"/>
<stop offset="0.203125" stop-color="rgb(78.40271%, 92.808533%, 93.748474%)" stop-opacity="1"/>
<stop offset="0.21875" stop-color="rgb(78.58429%, 92.875671%, 93.937683%)" stop-opacity="1"/>
<stop offset="0.234375" stop-color="rgb(78.926086%, 92.987061%, 93.984985%)" stop-opacity="1"/>
<stop offset="0.25" stop-color="rgb(79.304504%, 93.115234%, 94.128418%)" stop-opacity="1"/>
<stop offset="0.265625" stop-color="rgb(79.403687%, 93.148804%, 94.180298%)" stop-opacity="1"/>
<stop offset="0.273438" stop-color="rgb(79.2099%, 93.080139%, 94.042969%)" stop-opacity="1"/>
<stop offset="0.28125" stop-color="rgb(78.999329%, 93.009949%, 93.988037%)" stop-opacity="1"/>
<stop offset="0.296875" stop-color="rgb(78.858948%, 92.965698%, 93.981934%)" stop-opacity="1"/>
<stop offset="0.3125" stop-color="rgb(78.631592%, 92.883301%, 93.79425%)" stop-opacity="1"/>
<stop offset="0.320312" stop-color="rgb(78.334045%, 92.779541%, 93.60199%)" stop-opacity="1"/>
<stop offset="0.328125" stop-color="rgb(78.134155%, 92.715454%, 93.589783%)" stop-opacity="1"/>
<stop offset="0.34375" stop-color="rgb(78.013611%, 92.677307%, 93.585205%)" stop-opacity="1"/>
<stop offset="0.351563" stop-color="rgb(77.880859%, 92.634583%, 93.579102%)" stop-opacity="1"/>
<stop offset="0.359375" stop-color="rgb(77.670288%, 92.567444%, 93.569946%)" stop-opacity="1"/>
<stop offset="0.367187" stop-color="rgb(77.458191%, 92.498779%, 93.562317%)" stop-opacity="1"/>
<stop offset="0.375" stop-color="rgb(77.24762%, 92.428589%, 93.501282%)" stop-opacity="1"/>
<stop offset="0.382812" stop-color="rgb(77.035522%, 92.353821%, 93.34259%)" stop-opacity="1"/>
<stop offset="0.390625" stop-color="rgb(76.824951%, 92.280579%, 93.208313%)" stop-opacity="1"/>
<stop offset="0.40625" stop-color="rgb(76.594543%, 92.204285%, 93.167114%)" stop-opacity="1"/>
<stop offset="0.421875" stop-color="rgb(76.368713%, 92.132568%, 93.157959%)" stop-opacity="1"/>
<stop offset="0.4375" stop-color="rgb(76.171875%, 92.068481%, 93.15033%)" stop-opacity="1"/>
<stop offset="0.453125" stop-color="rgb(75.946045%, 91.990662%, 93.02063%)" stop-opacity="1"/>
<stop offset="0.460937" stop-color="rgb(75.706482%, 91.905212%, 92.832947%)" stop-opacity="1"/>
<stop offset="0.46875" stop-color="rgb(75.495911%, 91.835022%, 92.767334%)" stop-opacity="1"/>
<stop offset="0.476563" stop-color="rgb(75.283813%, 91.766357%, 92.758179%)" stop-opacity="1"/>
<stop offset="0.484375" stop-color="rgb(75.073242%, 91.699219%, 92.750549%)" stop-opacity="1"/>
<stop offset="0.492188" stop-color="rgb(74.861145%, 91.63208%, 92.74292%)" stop-opacity="1"/>
<stop offset="0.5" stop-color="rgb(74.650574%, 91.564941%, 92.733765%)" stop-opacity="1"/>
<stop offset="0.515625" stop-color="rgb(74.526978%, 91.516113%, 92.553711%)" stop-opacity="1"/>
<stop offset="0.523437" stop-color="rgb(74.406433%, 91.468811%, 92.372131%)" stop-opacity="1"/>
<stop offset="0.53125" stop-color="rgb(74.197388%, 91.401672%, 92.362976%)" stop-opacity="1"/>
<stop offset="0.539063" stop-color="rgb(73.985291%, 91.334534%, 92.353821%)" stop-opacity="1"/>
<stop offset="0.546875" stop-color="rgb(73.774719%, 91.265869%, 92.346191%)" stop-opacity="1"/>
<stop offset="0.554688" stop-color="rgb(73.562622%, 91.19873%, 92.338562%)" stop-opacity="1"/>
<stop offset="0.5625" stop-color="rgb(73.352051%, 91.131592%, 92.330933%)" stop-opacity="1"/>
<stop offset="0.570312" stop-color="rgb(73.139954%, 91.062927%, 92.323303%)" stop-opacity="1"/>
<stop offset="0.578125" stop-color="rgb(72.929382%, 90.992737%, 92.260742%)" stop-opacity="1"/>
<stop offset="0.59375" stop-color="rgb(72.686768%, 90.907288%, 92.077637%)" stop-opacity="1"/>
<stop offset="0.609375" stop-color="rgb(72.459412%, 90.827942%, 91.944885%)" stop-opacity="1"/>
<stop offset="0.617188" stop-color="rgb(72.264099%, 90.765381%, 91.938782%)" stop-opacity="1"/>
<stop offset="0.625" stop-color="rgb(72.053528%, 90.698242%, 91.931152%)" stop-opacity="1"/>
<stop offset="0.632813" stop-color="rgb(71.841431%, 90.631104%, 91.923523%)" stop-opacity="1"/>
<stop offset="0.640625" stop-color="rgb(71.630859%, 90.562439%, 91.915894%)" stop-opacity="1"/>
<stop offset="0.65625" stop-color="rgb(71.44928%, 90.504456%, 91.908264%)" stop-opacity="1"/>
<stop offset="0.671875" stop-color="rgb(71.221924%, 90.432739%, 91.900635%)" stop-opacity="1"/>
<stop offset="0.679688" stop-color="rgb(70.965576%, 90.34729%, 91.838074%)" stop-opacity="1"/>
<stop offset="0.6875" stop-color="rgb(70.755005%, 90.272522%, 91.682434%)" stop-opacity="1"/>
<stop offset="0.695313" stop-color="rgb(70.542908%, 90.19928%, 91.55426%)" stop-opacity="1"/>
<stop offset="0.703125" stop-color="rgb(70.332336%, 90.130615%, 91.520691%)" stop-opacity="1"/>
<stop offset="0.710938" stop-color="rgb(70.120239%, 90.061951%, 91.513062%)" stop-opacity="1"/>
<stop offset="0.71875" stop-color="rgb(69.909668%, 89.994812%, 91.505432%)" stop-opacity="1"/>
<stop offset="0.734375" stop-color="rgb(69.607544%, 89.897156%, 91.481018%)" stop-opacity="1"/>
<stop offset="0.75" stop-color="rgb(69.381714%, 89.816284%, 91.299438%)" stop-opacity="1"/>
<stop offset="0.757813" stop-color="rgb(69.244385%, 89.764404%, 91.136169%)" stop-opacity="1"/>
<stop offset="0.765625" stop-color="rgb(69.033813%, 89.697266%, 91.12854%)" stop-opacity="1"/>
<stop offset="0.78125" stop-color="rgb(68.777466%, 89.616394%, 91.120911%)" stop-opacity="1"/>
<stop offset="0.796875" stop-color="rgb(68.551636%, 89.5401%, 91.046143%)" stop-opacity="1"/>
<stop offset="0.804687" stop-color="rgb(68.36853%, 89.474487%, 90.878296%)" stop-opacity="1"/>
<stop offset="0.8125" stop-color="rgb(68.157959%, 89.401245%, 90.766907%)" stop-opacity="1"/>
<stop offset="0.820312" stop-color="rgb(67.945862%, 89.332581%, 90.748596%)" stop-opacity="1"/>
<stop offset="0.828125" stop-color="rgb(67.735291%, 89.265442%, 90.740967%)" stop-opacity="1"/>
<stop offset="0.84375" stop-color="rgb(67.539978%, 89.202881%, 90.734863%)" stop-opacity="1"/>
<stop offset="0.859375" stop-color="rgb(67.314148%, 89.131165%, 90.727234%)" stop-opacity="1"/>
<stop offset="0.875" stop-color="rgb(67.11731%, 89.060974%, 90.588379%)" stop-opacity="1"/>
<stop offset="0.890625" stop-color="rgb(66.891479%, 88.980103%, 90.408325%)" stop-opacity="1"/>
<stop offset="0.90625" stop-color="rgb(66.694641%, 88.916016%, 90.365601%)" stop-opacity="1"/>
<stop offset="0.914063" stop-color="rgb(66.574097%, 88.877869%, 90.361023%)" stop-opacity="1"/>
<stop offset="0.921875" stop-color="rgb(66.374207%, 88.813782%, 90.354919%)" stop-opacity="1"/>
<stop offset="0.9375" stop-color="rgb(66.07666%, 88.719177%, 90.345764%)" stop-opacity="1"/>
<stop offset="0.953125" stop-color="rgb(65.849304%, 88.644409%, 90.310669%)" stop-opacity="1"/>
<stop offset="0.960937" stop-color="rgb(65.710449%, 88.594055%, 90.185547%)" stop-opacity="1"/>
<stop offset="0.96875" stop-color="rgb(65.498352%, 88.519287%, 90.037537%)" stop-opacity="1"/>
<stop offset="0.984375" stop-color="rgb(65.246582%, 88.43689%, 89.981079%)" stop-opacity="1"/>
<stop offset="1" stop-color="rgb(65.019226%, 88.363647%, 89.97345%)" stop-opacity="1"/>
</linearGradient>
<clipPath id="clip-3">
<path clip-rule="nonzero" d="M 1626 1969 L 2293 1969 L 2293 2252 L 1626 2252 Z M 1626 1969 "/>
</clipPath>
<clipPath id="clip-4">
<path clip-rule="nonzero" d="M 2261.519531 1969.710938 C 2272.410156 2068.75 2282.160156 2157.550781 2292.460938 2251.210938 L 1626.929688 2251.210938 C 1629.050781 2190.410156 1659.988281 2146.898438 1703.570312 2118.730469 C 1760.589844 2081.859375 1821.78125 2048.320312 1885.550781 2025.648438 C 2004.160156 1983.480469 2128.410156 1968.910156 2261.519531 1969.710938 Z M 2261.519531 1969.710938 "/>
</clipPath>
<clipPath id="clip-5">
<path clip-rule="nonzero" d="M 2261.519531 1969.710938 C 2272.410156 2068.75 2282.160156 2157.550781 2292.460938 2251.210938 L 1626.929688 2251.210938 C 1629.050781 2190.410156 1659.988281 2146.898438 1703.570312 2118.730469 C 1760.589844 2081.859375 1821.78125 2048.320312 1885.550781 2025.648438 C 2004.160156 1983.480469 2128.410156 1968.910156 2261.519531 1969.710938 "/>
</clipPath>
<linearGradient id="linear-pattern-1" gradientUnits="userSpaceOnUse" x1="-0.0938058" y1="0" x2="0.402041" y2="0" gradientTransform="matrix(1397.7, 343.601, -343.601, 1397.7, 1743.31, 2061.07)">
<stop offset="0" stop-color="rgb(61.177063%, 87.086487%, 88.859558%)" stop-opacity="1"/>
<stop offset="0.125" stop-color="rgb(61.177063%, 87.086487%, 88.859558%)" stop-opacity="1"/>
<stop offset="0.1875" stop-color="rgb(61.177063%, 87.086487%, 88.859558%)" stop-opacity="1"/>
<stop offset="0.21875" stop-color="rgb(61.325073%, 87.139893%, 88.989258%)" stop-opacity="1"/>
<stop offset="0.25" stop-color="rgb(61.637878%, 87.24823%, 89.164734%)" stop-opacity="1"/>
<stop offset="0.28125" stop-color="rgb(61.97052%, 87.356567%, 89.215088%)" stop-opacity="1"/>
<stop offset="0.296875" stop-color="rgb(62.245178%, 87.44812%, 89.283752%)" stop-opacity="1"/>
<stop offset="0.3125" stop-color="rgb(62.411499%, 87.509155%, 89.457703%)" stop-opacity="1"/>
<stop offset="0.328125" stop-color="rgb(62.651062%, 87.590027%, 89.569092%)" stop-opacity="1"/>
<stop offset="0.34375" stop-color="rgb(63.014221%, 87.70752%, 89.578247%)" stop-opacity="1"/>
<stop offset="0.375" stop-color="rgb(63.363647%, 87.818909%, 89.588928%)" stop-opacity="1"/>
<stop offset="0.390625" stop-color="rgb(63.710022%, 87.936401%, 89.755249%)" stop-opacity="1"/>
<stop offset="0.40625" stop-color="rgb(63.90686%, 88.008118%, 89.929199%)" stop-opacity="1"/>
<stop offset="0.421875" stop-color="rgb(64.073181%, 88.061523%, 89.94751%)" stop-opacity="1"/>
<stop offset="0.4375" stop-color="rgb(64.405823%, 88.168335%, 89.956665%)" stop-opacity="1"/>
<stop offset="0.453125" stop-color="rgb(64.767456%, 88.282776%, 89.967346%)" stop-opacity="1"/>
<stop offset="0.46875" stop-color="rgb(65.130615%, 88.40332%, 90.06958%)" stop-opacity="1"/>
<stop offset="0.484375" stop-color="rgb(65.493774%, 88.528442%, 90.25116%)" stop-opacity="1"/>
<stop offset="0.5" stop-color="rgb(65.779114%, 88.623047%, 90.338135%)" stop-opacity="1"/>
<stop offset="0.515625" stop-color="rgb(65.945435%, 88.676453%, 90.342712%)" stop-opacity="1"/>
<stop offset="0.53125" stop-color="rgb(66.188049%, 88.754272%, 90.350342%)" stop-opacity="1"/>
<stop offset="0.546875" stop-color="rgb(66.551208%, 88.871765%, 90.390015%)" stop-opacity="1"/>
<stop offset="0.5625" stop-color="rgb(66.896057%, 88.990784%, 90.571594%)" stop-opacity="1"/>
<stop offset="0.59375" stop-color="rgb(67.243958%, 89.108276%, 90.725708%)" stop-opacity="1"/>
<stop offset="0.625" stop-color="rgb(67.59491%, 89.227295%, 90.873718%)" stop-opacity="1"/>
<stop offset="0.65625" stop-color="rgb(67.927551%, 89.341736%, 91.055298%)" stop-opacity="1"/>
<stop offset="0.671875" stop-color="rgb(68.275452%, 89.454651%, 91.104126%)" stop-opacity="1"/>
<stop offset="0.6875" stop-color="rgb(68.637085%, 89.570618%, 91.116333%)" stop-opacity="1"/>
<stop offset="0.703125" stop-color="rgb(69.000244%, 89.691162%, 91.19873%)" stop-opacity="1"/>
<stop offset="0.71875" stop-color="rgb(69.297791%, 89.794922%, 91.383362%)" stop-opacity="1"/>
<stop offset="0.734375" stop-color="rgb(69.464111%, 89.852905%, 91.490173%)" stop-opacity="1"/>
<stop offset="0.75" stop-color="rgb(69.696045%, 89.926147%, 91.497803%)" stop-opacity="1"/>
<stop offset="0.757812" stop-color="rgb(69.967651%, 90.013123%, 91.506958%)" stop-opacity="1"/>
<stop offset="0.765625" stop-color="rgb(70.170593%, 90.078735%, 91.532898%)" stop-opacity="1"/>
<stop offset="0.773438" stop-color="rgb(70.463562%, 90.177917%, 91.644287%)" stop-opacity="1"/>
<stop offset="0.78125" stop-color="rgb(70.812988%, 90.296936%, 91.810608%)" stop-opacity="1"/>
<stop offset="0.8125" stop-color="rgb(71.154785%, 90.411377%, 91.897583%)" stop-opacity="1"/>
<stop offset="0.828125" stop-color="rgb(71.508789%, 90.524292%, 91.911316%)" stop-opacity="1"/>
<stop offset="0.84375" stop-color="rgb(71.871948%, 90.640259%, 91.923523%)" stop-opacity="1"/>
<stop offset="0.859375" stop-color="rgb(72.233582%, 90.756226%, 91.937256%)" stop-opacity="1"/>
<stop offset="0.875" stop-color="rgb(72.4823%, 90.840149%, 92.048645%)" stop-opacity="1"/>
<stop offset="0.890625" stop-color="rgb(72.648621%, 90.90271%, 92.23175%)" stop-opacity="1"/>
<stop offset="0.90625" stop-color="rgb(72.845459%, 90.968323%, 92.311096%)" stop-opacity="1"/>
<stop offset="0.921875" stop-color="rgb(73.01178%, 91.021729%, 92.3172%)" stop-opacity="1"/>
<stop offset="0.9375" stop-color="rgb(73.262024%, 91.1026%, 92.327881%)" stop-opacity="1"/>
<stop offset="0.953125" stop-color="rgb(73.625183%, 91.220093%, 92.378235%)" stop-opacity="1"/>
<stop offset="0.96875" stop-color="rgb(73.986816%, 91.345215%, 92.567444%)" stop-opacity="1"/>
<stop offset="0.984375" stop-color="rgb(74.349976%, 91.468811%, 92.723083%)" stop-opacity="1"/>
<stop offset="1" stop-color="rgb(74.713135%, 91.584778%, 92.736816%)" stop-opacity="1"/>
</linearGradient>
</defs>

<path fill-rule="nonzero" fill="rgb(14.482117%, 13.876343%, 13.757324%)" fill-opacity="1" d="M 3996.25 3138.039062 L 1003.75 3138.039062 L 1003.75 3096 L 3996.25 3096 L 3996.25 3138.039062 "/>
<path fill-rule="nonzero" fill="rgb(12.162781%, 11.508179%, 10.714722%)" fill-opacity="1" d="M 1163.421875 2806.570312 L 1849.140625 2950.558594 L 3182.078125 2950.558594 L 3263.339844 2910.640625 L 3712.398438 2906.359375 L 3835 2865.019531 L 3872.070312 2673.988281 L 3365.980469 2374.609375 L 2782.910156 2508.621094 L 1936.101562 2581.320312 L 1491.308594 2358.929688 L 1240.398438 2581.320312 L 1163.421875 2806.570312 "/>
<path fill-rule="nonzero" fill="rgb(97.877502%, 97.859192%, 98.634338%)" fill-opacity="1" d="M 4062.371094 2593.230469 C 4045.558594 2662.011719 4020.960938 2728.929688 3998.75 2796.328125 C 3985.828125 2835.578125 3957.308594 2859.191406 3917.261719 2867.871094 C 3883.199219 2875.238281 3848.800781 2881.019531 3805.019531 2889.28125 C 3816.929688 2754.058594 3783.71875 2642.179688 3678.859375 2561.019531 C 3610.429688 2508.050781 3531.988281 2483.070312 3446 2492.570312 C 3230.921875 2516.328125 3128.820312 2671.308594 3153.421875 2937.851562 L 1848.46875 2937.851562 C 1879.371094 2812.828125 1864.179688 2699.558594 1779.171875 2602.808594 C 1718.171875 2533.371094 1639.589844 2498.710938 1548.480469 2491.101562 C 1356.210938 2475 1229.089844 2607.949219 1189.769531 2874.140625 C 1134.910156 2862.921875 1075.800781 2861.160156 1027.328125 2837.53125 C 991.082031 2819.871094 952.277344 2777.769531 943.578125 2739.910156 C 929.183594 2677.140625 924.21875 2605.21875 940.984375 2544.21875 C 953.386719 2499.019531 960.015625 2454.941406 963.054688 2410.25 C 964.28125 2392.328125 964.933594 2374.308594 965.148438 2356.078125 C 966.105469 2274.621094 984.480469 2244.28125 1063.839844 2235.5 C 1216.839844 2218.550781 1355.441406 2163.089844 1491.308594 2098.859375 C 1515.890625 2087.238281 1540.378906 2075.320312 1564.859375 2063.300781 C 1727.179688 1983.578125 1893.988281 1918.988281 2075.371094 1895.589844 C 2371.738281 1857.351562 2651.25 1907.269531 2913.71875 2049.199219 C 2989.421875 2090.148438 3063.21875 2134.570312 3137.878906 2177.390625 C 3163.910156 2192.320312 3190.058594 2207.058594 3216.421875 2221.390625 C 3244.089844 2236.429688 3277.820312 2245.410156 3309.371094 2247.328125 C 3477.398438 2257.511719 3646 2264.238281 3808.390625 2313.429688 C 3864.53125 2330.429688 3919.761719 2354.351562 3970.859375 2383.148438 C 3985.601562 2391.460938 3998.699219 2400.488281 4010.140625 2410.25 C 4063.601562 2455.839844 4080.949219 2517.171875 4062.371094 2593.230469 "/>
<path fill-rule="nonzero" fill="rgb(8.439636%, 8.990479%, 10.073853%)" fill-opacity="1" d="M 1823.570312 2824.269531 C 1823.570312 2985.839844 1692.601562 3116.808594 1531.03125 3116.808594 C 1369.46875 3116.808594 1238.5 2985.839844 1238.5 2824.269531 C 1238.5 2662.710938 1369.46875 2531.730469 1531.03125 2531.730469 C 1692.601562 2531.730469 1823.570312 2662.710938 1823.570312 2824.269531 "/>
<path fill-rule="nonzero" fill="rgb(35.093689%, 37.184143%, 39.178467%)" fill-opacity="1" d="M 1718.238281 2824.269531 C 1718.238281 2927.660156 1634.421875 3011.46875 1531.03125 3011.46875 C 1427.648438 3011.46875 1343.828125 2927.660156 1343.828125 2824.269531 C 1343.828125 2720.878906 1427.648438 2637.070312 1531.03125 2637.070312 C 1634.421875 2637.070312 1718.238281 2720.878906 1718.238281 2824.269531 "/>
<path fill-rule="nonzero" fill="rgb(57.092285%, 57.36084%, 57.281494%)" fill-opacity="1" d="M 1640.378906 2824.269531 C 1640.378906 2884.660156 1591.421875 2933.621094 1531.03125 2933.621094 C 1470.648438 2933.621094 1421.691406 2884.660156 1421.691406 2824.269531 C 1421.691406 2763.878906 1470.648438 2714.929688 1531.03125 2714.929688 C 1591.421875 2714.929688 1640.378906 2763.878906 1640.378906 2824.269531 "/>
<path fill-rule="nonzero" fill="rgb(57.092285%, 57.36084%, 57.281494%)" fill-opacity="1" d="M 1531.03125 2682.871094 C 1453.058594 2682.871094 1389.628906 2746.300781 1389.628906 2824.269531 C 1389.628906 2902.238281 1453.058594 2965.671875 1531.03125 2965.671875 C 1609 2965.671875 1672.441406 2902.238281 1672.441406 2824.269531 C 1672.441406 2746.300781 1609 2682.871094 1531.03125 2682.871094 Z M 1531.03125 2979.410156 C 1445.488281 2979.410156 1375.890625 2909.820312 1375.890625 2824.269531 C 1375.890625 2738.730469 1445.488281 2669.128906 1531.03125 2669.128906 C 1616.578125 2669.128906 1686.179688 2738.730469 1686.179688 2824.269531 C 1686.179688 2909.820312 1616.578125 2979.410156 1531.03125 2979.410156 "/>
<path fill-rule="nonzero" fill="rgb(8.439636%, 8.990479%, 10.073853%)" fill-opacity="1" d="M 3767.621094 2823.988281 C 3767.621094 2985.558594 3636.648438 3116.53125 3475.078125 3116.53125 C 3313.519531 3116.53125 3182.539062 2985.558594 3182.539062 2823.988281 C 3182.539062 2662.429688 3313.519531 2531.449219 3475.078125 2531.449219 C 3636.648438 2531.449219 3767.621094 2662.429688 3767.621094 2823.988281 "/>
<path fill-rule="nonzero" fill="rgb(35.093689%, 37.184143%, 39.178467%)" fill-opacity="1" d="M 3662.289062 2823.988281 C 3662.289062 2927.378906 3578.46875 3011.191406 3475.078125 3011.191406 C 3371.691406 3011.191406 3287.878906 2927.378906 3287.878906 2823.988281 C 3287.878906 2720.601562 3371.691406 2636.789062 3475.078125 2636.789062 C 3578.46875 2636.789062 3662.289062 2720.601562 3662.289062 2823.988281 "/>
<path fill-rule="nonzero" fill="rgb(57.092285%, 57.36084%, 57.281494%)" fill-opacity="1" d="M 3584.429688 2823.988281 C 3584.429688 2884.378906 3535.46875 2933.339844 3475.078125 2933.339844 C 3414.691406 2933.339844 3365.738281 2884.378906 3365.738281 2823.988281 C 3365.738281 2763.601562 3414.691406 2714.648438 3475.078125 2714.648438 C 3535.46875 2714.648438 3584.429688 2763.601562 3584.429688 2823.988281 "/>
<path fill-rule="nonzero" fill="rgb(57.092285%, 57.36084%, 57.281494%)" fill-opacity="1" d="M 3475.078125 2682.589844 C 3397.109375 2682.589844 3333.679688 2746.019531 3333.679688 2823.988281 C 3333.679688 2901.960938 3397.109375 2965.398438 3475.078125 2965.398438 C 3553.050781 2965.398438 3616.488281 2901.960938 3616.488281 2823.988281 C 3616.488281 2746.019531 3553.050781 2682.589844 3475.078125 2682.589844 Z M 3475.078125 2979.128906 C 3389.539062 2979.128906 3319.941406 2909.539062 3319.941406 2823.988281 C 3319.941406 2738.449219 3389.539062 2668.851562 3475.078125 2668.851562 C 3560.628906 2668.851562 3630.230469 2738.449219 3630.230469 2823.988281 C 3630.230469 2909.539062 3560.628906 2979.128906 3475.078125 2979.128906 "/>
<path fill-rule="nonzero" fill="rgb(45.15686%, 26.296997%, 11.729431%)" fill-opacity="1" d="M 2910.828125 2208.109375 L 2947.800781 2252.011719 L 2870.378906 2252.011719 Z M 2910.828125 2208.109375 "/>
<path fill-rule="nonzero" fill="rgb(6.266785%, 5.734253%, 5.047607%)" fill-opacity="1" d="M 2824.191406 2252.011719 L 2898.53125 2174.648438 C 2904.820312 2168.109375 2915.078125 2167.519531 2922.070312 2173.289062 C 2929.761719 2179.648438 2930.511719 2191.160156 2923.710938 2198.460938 L 2873.859375 2252.011719 L 2824.191406 2252.011719 "/>
<path fill-rule="nonzero" fill="rgb(75.952148%, 75.468445%, 74.658203%)" fill-opacity="1" d="M 1189.769531 2874.140625 C 1134.910156 2862.921875 1075.800781 2861.160156 1027.328125 2837.53125 C 991.082031 2819.871094 952.277344 2777.769531 943.578125 2739.910156 C 935.535156 2704.851562 930.4375 2666.929688 930.425781 2629.648438 C 930.4375 2666.929688 935.535156 2704.851562 943.578125 2739.910156 C 952.277344 2777.769531 991.082031 2819.871094 1027.328125 2837.53125 C 1075.800781 2861.160156 1134.910156 2862.921875 1189.769531 2874.140625 C 1192.828125 2853.410156 1196.429688 2833.46875 1200.539062 2814.359375 C 1196.429688 2833.46875 1192.828125 2853.410156 1189.769531 2874.140625 "/>
<path fill-rule="nonzero" fill="rgb(61.941528%, 62.030029%, 61.170959%)" fill-opacity="1" d="M 3153.359375 2937.210938 C 3153.351562 2937.03125 3153.328125 2936.839844 3153.308594 2936.660156 C 3153.328125 2936.851562 3153.351562 2937.03125 3153.359375 2937.210938 M 3153.308594 2936.609375 C 3143.378906 2827.511719 3154.730469 2737.179688 3186.421875 2666.921875 C 3184.96875 2670.160156 3183.558594 2673.429688 3182.191406 2676.75 C 3153.730469 2745.539062 3143.851562 2832.539062 3153.308594 2936.609375 M 1200.539062 2814.359375 C 1246.421875 2601.410156 1357.109375 2489.789062 1517.820312 2489.789062 C 1527.851562 2489.789062 1538.070312 2490.230469 1548.480469 2491.101562 C 1563.78125 2492.378906 1578.730469 2494.421875 1593.300781 2497.261719 C 1578.730469 2494.421875 1563.78125 2492.378906 1548.480469 2491.101562 C 1538.070312 2490.230469 1527.851562 2489.789062 1517.820312 2489.789062 C 1357.109375 2489.789062 1246.421875 2601.410156 1200.539062 2814.359375 M 3186.511719 2666.730469 C 3186.539062 2666.660156 3186.578125 2666.570312 3186.621094 2666.5 C 3186.578125 2666.570312 3186.539062 2666.648438 3186.511719 2666.730469 M 3188.730469 2661.910156 C 3234.589844 2564.601562 3320.46875 2507 3443.820312 2492.808594 C 3322.441406 2506.78125 3237.339844 2562.78125 3190.960938 2657.300781 C 3190.210938 2658.820312 3189.460938 2660.359375 3188.730469 2661.910156 M 3609.550781 2518.699219 C 3569.421875 2500.289062 3526.621094 2490.589844 3481.550781 2490.589844 C 3469.851562 2490.589844 3458 2491.238281 3446 2492.570312 C 3445.769531 2492.589844 3445.53125 2492.621094 3445.300781 2492.640625 C 3445.53125 2492.621094 3445.761719 2492.589844 3446 2492.570312 C 3458 2491.238281 3469.851562 2490.589844 3481.550781 2490.589844 C 3526.621094 2490.589844 3569.421875 2500.289062 3609.550781 2518.699219 M 3443.871094 2492.808594 C 3444.078125 2492.78125 3444.289062 2492.761719 3444.5 2492.730469 C 3444.289062 2492.761719 3444.078125 2492.78125 3443.871094 2492.808594 M 3444.589844 2492.71875 C 3444.800781 2492.699219 3445.011719 2492.679688 3445.21875 2492.648438 C 3445.011719 2492.679688 3444.800781 2492.699219 3444.589844 2492.71875 "/>
<path fill-rule="nonzero" fill="rgb(80.834961%, 80.39093%, 79.655457%)" fill-opacity="1" d="M 3153.421875 2937.851562 L 1848.46875 2937.851562 C 1879.371094 2812.828125 1864.179688 2699.558594 1779.171875 2602.808594 C 1728.410156 2545.03125 1665.488281 2511.328125 1593.300781 2497.261719 C 1578.730469 2494.421875 1563.78125 2492.378906 1548.480469 2491.101562 C 1538.070312 2490.230469 1527.851562 2489.789062 1517.820312 2489.789062 C 1357.109375 2489.789062 1246.421875 2601.410156 1200.539062 2814.359375 C 1196.429688 2833.46875 1192.828125 2853.410156 1189.769531 2874.140625 C 1134.910156 2862.921875 1075.800781 2861.160156 1027.328125 2837.53125 C 991.082031 2819.871094 952.277344 2777.769531 943.578125 2739.910156 C 935.535156 2704.851562 930.4375 2666.929688 930.425781 2629.648438 C 930.417969 2600.199219 933.585938 2571.140625 940.984375 2544.21875 C 953.386719 2499.019531 960.015625 2454.941406 963.054688 2410.25 L 1376.578125 2410.25 C 1352.808594 2418.820312 1329.699219 2429.5 1307.75 2442.488281 C 1290.640625 2452.671875 1274.179688 2464.121094 1258.839844 2477.070312 C 1254.960938 2480.25 1251.261719 2483.648438 1247.511719 2486.988281 C 1245.648438 2488.679688 1243.851562 2490.441406 1242.019531 2492.160156 L 1239.289062 2494.761719 L 1236.628906 2497.449219 L 1231.339844 2502.828125 C 1229.640625 2504.691406 1227.910156 2506.519531 1226.050781 2508.230469 C 1222.339844 2511.660156 1218.601562 2515.140625 1216.03125 2519.578125 C 1211.089844 2528.601562 1206.800781 2537.929688 1202.941406 2547.300781 C 1202.011719 2549.671875 1201.140625 2552.058594 1200.25 2554.429688 C 1199.351562 2556.78125 1198.5 2559.148438 1197.71875 2561.558594 L 1195.351562 2568.691406 L 1193.320312 2575.941406 L 1192.328125 2579.539062 L 1191.449219 2583.171875 C 1190.890625 2585.589844 1190.269531 2587.980469 1189.769531 2590.398438 C 1188.871094 2595.308594 1187.839844 2600.089844 1187.191406 2604.96875 C 1185.71875 2614.671875 1184.96875 2624.410156 1184.808594 2634.070312 C 1190.738281 2626.351562 1196.289062 2618.761719 1202.421875 2611.660156 C 1208.320312 2604.46875 1214.519531 2597.671875 1220.800781 2591.179688 C 1227.089844 2584.691406 1233.558594 2578.558594 1240.171875 2572.769531 C 1243.539062 2569.929688 1246.761719 2567.039062 1250.210938 2564.359375 C 1251.910156 2563.011719 1253.53125 2561.609375 1255.269531 2560.320312 C 1256.980469 2559.011719 1258.75 2557.75 1260.378906 2556.410156 C 1261.980469 2555.03125 1263.519531 2553.609375 1264.789062 2551.960938 C 1266.078125 2550.328125 1267.199219 2548.550781 1268.519531 2546.921875 C 1271.050781 2543.578125 1274.089844 2540.699219 1277.011719 2537.710938 L 1279.210938 2535.480469 L 1281.488281 2533.320312 C 1283.019531 2531.890625 1284.511719 2530.421875 1286.050781 2529.011719 C 1289.191406 2526.230469 1292.269531 2523.390625 1295.519531 2520.738281 C 1308.339844 2509.898438 1322.230469 2500.238281 1336.78125 2491.578125 C 1365.941406 2474.300781 1398.050781 2461.558594 1431.339844 2453.019531 C 1464.648438 2444.441406 1499.238281 2440.261719 1533.820312 2440.039062 C 1534.71875 2440.03125 1535.609375 2440.03125 1536.511719 2440.03125 C 1570.199219 2440.03125 1603.898438 2444.03125 1636.488281 2451.910156 C 1644.859375 2453.898438 1653.121094 2456.28125 1661.328125 2458.78125 C 1669.5 2461.390625 1677.601562 2464.191406 1685.558594 2467.300781 C 1693.5 2470.460938 1701.390625 2473.730469 1709.039062 2477.441406 C 1710 2477.898438 1711 2478.328125 1711.910156 2478.808594 L 1714.628906 2480.238281 L 1720.089844 2483.089844 C 1723.78125 2484.871094 1727.238281 2487.140625 1730.789062 2489.21875 C 1744.871094 2497.78125 1758.171875 2507.820312 1770.558594 2519.039062 L 1775.148438 2523.320312 C 1776.671875 2524.769531 1778.261719 2526.121094 1779.691406 2527.671875 L 1788.460938 2536.71875 L 1792.648438 2541.449219 C 1794.039062 2543.039062 1795.488281 2544.578125 1796.738281 2546.28125 C 1798.019531 2547.949219 1799.050781 2549.851562 1800.339844 2551.519531 C 1801.621094 2553.199219 1803.128906 2554.691406 1804.859375 2556.019531 C 1811.710938 2561.410156 1818.511719 2567.070312 1825.070312 2573.101562 C 1826.738281 2574.601562 1828.46875 2576.058594 1830.089844 2577.601562 L 1834.949219 2582.28125 L 1839.859375 2587.011719 C 1841.488281 2588.601562 1843.050781 2590.25 1844.660156 2591.878906 C 1857.46875 2604.949219 1869.78125 2619.070312 1881.929688 2634.070312 C 1880.410156 2614.839844 1876.738281 2595.660156 1871.328125 2576.710938 C 1870.660156 2574.339844 1870.019531 2571.941406 1869.300781 2569.570312 L 1866.941406 2562.539062 L 1864.539062 2555.46875 C 1863.71875 2553.109375 1862.769531 2550.808594 1861.890625 2548.46875 C 1860.050781 2543.820312 1858.25 2539.109375 1856.109375 2534.570312 L 1852.980469 2527.671875 C 1851.929688 2525.359375 1850.890625 2523.03125 1849.699219 2520.789062 C 1848.539062 2518.539062 1847.160156 2516.441406 1845.53125 2514.550781 C 1843.890625 2512.660156 1842.128906 2510.890625 1840.371094 2509.109375 C 1838.570312 2507.359375 1836.960938 2505.449219 1835.289062 2503.589844 L 1830.308594 2497.980469 C 1826.859375 2494.359375 1823.339844 2490.78125 1819.851562 2487.191406 C 1818.140625 2485.359375 1816.238281 2483.699219 1814.421875 2481.96875 L 1808.910156 2476.828125 C 1793.988281 2463.320312 1777.78125 2451.039062 1760.371094 2440.46875 C 1755.96875 2437.878906 1751.691406 2435.128906 1747.089844 2432.859375 L 1740.300781 2429.320312 L 1736.898438 2427.550781 C 1735.769531 2426.96875 1734.648438 2426.480469 1733.53125 2425.941406 C 1724.601562 2421.621094 1715.460938 2417.808594 1706.28125 2414.171875 C 1702.808594 2412.808594 1699.320312 2411.511719 1695.808594 2410.25 L 3197.171875 2410.25 C 3199.808594 2435.019531 3202.160156 2462.171875 3203.550781 2489.609375 C 3201.089844 2491.570312 3198.648438 2493.570312 3196.238281 2495.609375 C 3192.359375 2498.78125 3188.648438 2502.179688 3184.898438 2505.519531 C 3183.050781 2507.210938 3181.25 2508.96875 3179.421875 2510.699219 L 3176.691406 2513.300781 L 3174.03125 2515.980469 L 3168.738281 2521.359375 C 3167.039062 2523.21875 3165.308594 2525.050781 3163.441406 2526.761719 C 3159.738281 2530.199219 3155.988281 2533.671875 3153.429688 2538.109375 C 3148.480469 2547.140625 3144.191406 2556.460938 3140.339844 2565.839844 C 3139.398438 2568.199219 3138.539062 2570.601562 3137.648438 2572.960938 C 3136.75 2575.320312 3135.890625 2577.679688 3135.121094 2580.089844 L 3132.75 2587.230469 L 3130.71875 2594.46875 L 3129.730469 2598.070312 L 3128.851562 2601.699219 C 3128.28125 2604.128906 3127.660156 2606.511719 3127.160156 2608.941406 C 3126.269531 2613.839844 3125.230469 2618.621094 3124.578125 2623.5 C 3123.109375 2633.199219 3122.371094 2642.941406 3122.199219 2652.601562 C 3128.140625 2644.890625 3133.679688 2637.289062 3139.808594 2630.191406 C 3145.71875 2623 3151.910156 2616.199219 3158.199219 2609.710938 C 3164.488281 2603.230469 3170.960938 2597.101562 3177.558594 2591.308594 C 3180.941406 2588.460938 3184.160156 2585.570312 3187.609375 2582.898438 C 3189.308594 2581.550781 3190.921875 2580.140625 3192.671875 2578.859375 C 3194.378906 2577.539062 3196.140625 2576.289062 3197.78125 2574.941406 C 3199.378906 2573.570312 3200.921875 2572.148438 3202.179688 2570.488281 C 3202.941406 2569.550781 3203.628906 2568.539062 3204.339844 2567.550781 C 3202.980469 2601.71875 3198.898438 2633.03125 3190.628906 2656.878906 L 3197.761719 2644.050781 C 3205.941406 2620.460938 3210.011719 2591 3211.390625 2559.300781 C 3212.390625 2558.28125 3213.410156 2557.269531 3214.410156 2556.25 L 3216.609375 2554.019531 L 3218.890625 2551.859375 C 3220.410156 2550.421875 3221.898438 2548.960938 3223.449219 2547.539062 C 3226.578125 2544.769531 3229.660156 2541.921875 3232.921875 2539.269531 C 3245.730469 2528.429688 3259.621094 2518.769531 3274.171875 2510.109375 C 3303.328125 2492.828125 3335.441406 2480.101562 3368.730469 2471.550781 C 3402.050781 2462.980469 3436.640625 2458.789062 3471.210938 2458.570312 C 3472.121094 2458.570312 3473.019531 2458.558594 3473.921875 2458.558594 C 3507.601562 2458.558594 3541.300781 2462.570312 3573.878906 2470.441406 C 3582.261719 2472.429688 3590.511719 2474.820312 3598.71875 2477.320312 C 3606.890625 2479.921875 3615 2482.71875 3622.960938 2485.828125 C 3630.890625 2488.988281 3638.78125 2492.261719 3646.441406 2495.96875 C 3647.390625 2496.429688 3648.390625 2496.859375 3649.300781 2497.339844 L 3652.03125 2498.769531 L 3657.480469 2501.621094 C 3661.179688 2503.398438 3664.628906 2505.679688 3668.179688 2507.75 C 3682.261719 2516.308594 3695.570312 2526.351562 3707.960938 2537.570312 L 3712.550781 2541.851562 C 3714.058594 2543.300781 3715.648438 2544.660156 3717.078125 2546.199219 L 3725.859375 2555.25 L 3730.050781 2559.988281 C 3731.441406 2561.570312 3732.878906 2563.109375 3734.128906 2564.808594 C 3735.421875 2566.488281 3736.449219 2568.390625 3737.738281 2570.050781 C 3739.011719 2571.738281 3740.53125 2573.230469 3742.261719 2574.550781 C 3749.109375 2579.941406 3755.910156 2585.601562 3762.46875 2591.640625 C 3764.128906 2593.128906 3765.859375 2594.589844 3767.488281 2596.128906 L 3772.351562 2600.820312 L 3777.25 2605.550781 C 3778.878906 2607.140625 3780.441406 2608.78125 3782.050781 2610.410156 C 3794.871094 2623.488281 3807.179688 2637.601562 3819.320312 2652.601562 C 3817.808594 2633.378906 3814.128906 2614.199219 3808.730469 2595.25 C 3808.050781 2592.878906 3807.421875 2590.46875 3806.691406 2588.101562 L 3804.328125 2581.070312 L 3801.929688 2574 C 3801.109375 2571.640625 3800.171875 2569.351562 3799.28125 2567 C 3797.449219 2562.359375 3795.640625 2557.648438 3793.511719 2553.101562 L 3790.371094 2546.199219 C 3789.320312 2543.890625 3788.28125 2541.570312 3787.101562 2539.320312 C 3785.941406 2537.070312 3784.550781 2534.980469 3782.929688 2533.078125 C 3781.289062 2531.191406 3779.53125 2529.421875 3777.769531 2527.640625 C 3775.960938 2525.890625 3774.351562 2523.988281 3772.691406 2522.121094 L 3767.710938 2516.519531 C 3764.261719 2512.890625 3760.738281 2509.320312 3757.25 2505.71875 C 3755.539062 2503.890625 3753.628906 2502.238281 3751.808594 2500.511719 L 3746.300781 2495.359375 C 3731.390625 2481.851562 3715.171875 2469.570312 3697.761719 2459 C 3693.371094 2456.410156 3689.078125 2453.660156 3684.488281 2451.398438 L 3677.691406 2447.851562 L 3674.289062 2446.078125 C 3673.160156 2445.5 3672.050781 2445.011719 3670.921875 2444.46875 C 3661.988281 2440.148438 3652.859375 2436.351562 3643.671875 2432.699219 C 3634.46875 2429.109375 3625.148438 2425.890625 3615.769531 2422.898438 C 3606.359375 2420.019531 3596.898438 2417.300781 3587.351562 2415.03125 C 3580.039062 2413.261719 3572.691406 2411.671875 3565.320312 2410.25 L 3828.320312 2410.25 C 3833.929688 2418.628906 3841.578125 2428.140625 3851.980469 2438.039062 C 3881.359375 2465.96875 3939.289062 2502.269531 4048.46875 2516.570312 L 4051.859375 2517.011719 L 4051.691406 2513.601562 C 4051.589844 2511.429688 4048.589844 2460.03125 4002.488281 2419.859375 C 3998.601562 2416.46875 3994.539062 2413.269531 3990.289062 2410.25 L 4010.140625 2410.25 C 4049.820312 2444.089844 4069.601562 2486.589844 4069.570312 2537.359375 C 4069.558594 2554.988281 4067.160156 2573.621094 4062.371094 2593.230469 C 4045.558594 2662.011719 4020.960938 2728.929688 3998.75 2796.328125 C 3985.828125 2835.578125 3957.308594 2859.191406 3917.261719 2867.871094 C 3883.199219 2875.238281 3848.800781 2881.019531 3805.019531 2889.28125 C 3806.53125 2872.121094 3807.320312 2855.328125 3807.320312 2838.929688 C 3807.339844 2726.148438 3770.410156 2631.878906 3678.859375 2561.019531 C 3656.769531 2543.929688 3633.640625 2529.738281 3609.550781 2518.699219 C 3569.421875 2500.289062 3526.621094 2490.589844 3481.550781 2490.589844 C 3469.851562 2490.589844 3458 2491.238281 3446 2492.570312 C 3445.761719 2492.589844 3445.53125 2492.621094 3445.300781 2492.640625 C 3445.269531 2492.648438 3445.25 2492.648438 3445.21875 2492.648438 C 3445.011719 2492.679688 3444.800781 2492.699219 3444.589844 2492.71875 C 3444.558594 2492.730469 3444.53125 2492.730469 3444.5 2492.730469 C 3444.289062 2492.761719 3444.078125 2492.78125 3443.871094 2492.808594 C 3443.859375 2492.808594 3443.828125 2492.808594 3443.820312 2492.808594 C 3320.46875 2507 3234.589844 2564.601562 3188.730469 2661.910156 C 3188.019531 2663.429688 3187.308594 2664.960938 3186.621094 2666.5 C 3186.578125 2666.570312 3186.539062 2666.660156 3186.511719 2666.730469 C 3186.480469 2666.789062 3186.449219 2666.859375 3186.421875 2666.921875 C 3154.730469 2737.179688 3143.378906 2827.511719 3153.308594 2936.609375 C 3153.308594 2936.628906 3153.308594 2936.640625 3153.308594 2936.660156 C 3153.328125 2936.839844 3153.351562 2937.03125 3153.359375 2937.210938 C 3153.378906 2937.421875 3153.398438 2937.640625 3153.421875 2937.851562 M 3065.179688 2652.601562 L 2928.320312 2753.820312 L 2031.609375 2810.851562 L 3009.578125 2823.679688 L 3065.179688 2652.601562 M 4032.949219 2692.21875 L 3950.019531 2719.738281 C 3950.019531 2719.738281 3949.75 2720.980469 3949.519531 2723.058594 C 3948.398438 2733.480469 3948.519531 2764.929688 3990.929688 2764.929688 C 3995.851562 2764.929688 4001.351562 2764.5 4007.46875 2763.570312 L 4015.371094 2741.449219 L 4032.949219 2692.21875 M 3210.429688 2484.28125 C 3208.921875 2458.699219 3206.429688 2433.460938 3203.609375 2410.25 L 3381.53125 2410.25 C 3372.511719 2412 3363.53125 2414.011719 3354.601562 2416.300781 C 3316.550781 2426.070312 3279.441406 2440.71875 3245.148438 2461.03125 C 3233.199219 2468.128906 3221.570312 2475.851562 3210.429688 2484.28125 "/>
<path fill-rule="nonzero" fill="rgb(63.076782%, 62.677002%, 62.826538%)" fill-opacity="1" d="M 3009.578125 2823.679688 L 2031.609375 2810.851562 L 2928.320312 2753.820312 L 3065.179688 2652.601562 L 3009.578125 2823.679688 "/>
<path fill-rule="nonzero" fill="rgb(48.152161%, 48.760986%, 49.186707%)" fill-opacity="1" d="M 3197.761719 2644.050781 L 3190.628906 2656.878906 C 3226.929688 2552.191406 3182.488281 2303.558594 3182.121094 2301.121094 L 3186.351562 2300.480469 C 3187.871094 2310.53125 3234.738281 2537.359375 3197.761719 2644.050781 "/>
<path fill-rule="nonzero" fill="rgb(48.152161%, 48.760986%, 49.186707%)" fill-opacity="1" d="M 2447.789062 2873.691406 L 2437.949219 2872.03125 C 2468.730469 2689.960938 2350.929688 2295.191406 2349.738281 2291.230469 L 2359.289062 2288.351562 C 2359.589844 2289.351562 2389.570312 2389.390625 2415.320312 2510.789062 C 2449.96875 2674.109375 2460.890625 2796.210938 2447.789062 2873.691406 "/>
<path fill-rule="nonzero" fill="rgb(97.877502%, 97.859192%, 98.634338%)" fill-opacity="1" d="M 3565.320312 2410.25 L 3381.53125 2410.25 C 3411.019531 2404.550781 3440.980469 2401.738281 3470.921875 2401.550781 C 3471.898438 2401.539062 3472.878906 2401.539062 3473.851562 2401.539062 C 3504.5 2401.539062 3535.148438 2404.441406 3565.320312 2410.25 "/>
<path fill-rule="nonzero" fill="rgb(89.559937%, 89.471436%, 89.421082%)" fill-opacity="1" d="M 3819.320312 2652.601562 C 3807.179688 2637.601562 3794.871094 2623.488281 3782.050781 2610.410156 C 3780.441406 2608.78125 3778.878906 2607.140625 3777.25 2605.550781 L 3772.351562 2600.820312 L 3767.488281 2596.128906 C 3765.859375 2594.589844 3764.128906 2593.128906 3762.46875 2591.640625 C 3755.910156 2585.601562 3749.109375 2579.941406 3742.261719 2574.550781 C 3740.53125 2573.230469 3739.011719 2571.738281 3737.738281 2570.050781 C 3736.449219 2568.390625 3735.421875 2566.488281 3734.128906 2564.808594 C 3732.878906 2563.109375 3731.441406 2561.570312 3730.050781 2559.988281 L 3725.859375 2555.25 L 3717.078125 2546.199219 C 3715.648438 2544.660156 3714.058594 2543.300781 3712.550781 2541.851562 L 3707.960938 2537.570312 C 3695.570312 2526.351562 3682.261719 2516.308594 3668.179688 2507.75 C 3664.628906 2505.679688 3661.179688 2503.398438 3657.480469 2501.621094 L 3652.03125 2498.769531 L 3649.300781 2497.339844 C 3648.390625 2496.859375 3647.390625 2496.429688 3646.441406 2495.96875 C 3638.78125 2492.261719 3630.890625 2488.988281 3622.960938 2485.828125 C 3615 2482.71875 3606.890625 2479.921875 3598.71875 2477.320312 C 3590.511719 2474.820312 3582.261719 2472.429688 3573.878906 2470.441406 C 3541.300781 2462.570312 3507.601562 2458.558594 3473.921875 2458.558594 C 3473.019531 2458.558594 3472.121094 2458.570312 3471.210938 2458.570312 C 3436.640625 2458.789062 3402.050781 2462.980469 3368.730469 2471.550781 C 3335.441406 2480.101562 3303.328125 2492.828125 3274.171875 2510.109375 C 3259.621094 2518.769531 3245.730469 2528.429688 3232.921875 2539.269531 C 3229.660156 2541.921875 3226.578125 2544.769531 3223.449219 2547.539062 C 3221.898438 2548.960938 3220.410156 2550.421875 3218.890625 2551.859375 L 3216.609375 2554.019531 L 3214.410156 2556.25 C 3213.410156 2557.269531 3212.390625 2558.28125 3211.390625 2559.300781 C 3212.441406 2535.050781 3211.910156 2509.5 3210.429688 2484.28125 C 3221.570312 2475.851562 3233.199219 2468.128906 3245.148438 2461.03125 C 3279.441406 2440.71875 3316.550781 2426.070312 3354.601562 2416.300781 C 3363.53125 2414.011719 3372.511719 2412 3381.53125 2410.25 L 3565.320312 2410.25 C 3572.691406 2411.671875 3580.039062 2413.261719 3587.351562 2415.03125 C 3596.898438 2417.300781 3606.359375 2420.019531 3615.769531 2422.898438 C 3625.148438 2425.890625 3634.46875 2429.109375 3643.671875 2432.699219 C 3652.859375 2436.351562 3661.988281 2440.148438 3670.921875 2444.46875 C 3672.050781 2445.011719 3673.160156 2445.5 3674.289062 2446.078125 L 3677.691406 2447.851562 L 3684.488281 2451.398438 C 3689.078125 2453.660156 3693.371094 2456.410156 3697.761719 2459 C 3715.171875 2469.570312 3731.390625 2481.851562 3746.300781 2495.359375 L 3751.808594 2500.511719 C 3753.628906 2502.238281 3755.539062 2503.890625 3757.25 2505.71875 C 3760.738281 2509.320312 3764.261719 2512.890625 3767.710938 2516.519531 L 3772.691406 2522.121094 C 3774.351562 2523.988281 3775.960938 2525.890625 3777.769531 2527.640625 C 3779.53125 2529.421875 3781.289062 2531.191406 3782.929688 2533.078125 C 3784.550781 2534.980469 3785.941406 2537.070312 3787.101562 2539.320312 C 3788.28125 2541.570312 3789.320312 2543.890625 3790.371094 2546.199219 L 3793.511719 2553.101562 C 3795.640625 2557.648438 3797.449219 2562.359375 3799.28125 2567 C 3800.171875 2569.351562 3801.109375 2571.640625 3801.929688 2574 L 3804.328125 2581.070312 L 3806.691406 2588.101562 C 3807.421875 2590.46875 3808.050781 2592.878906 3808.730469 2595.25 C 3814.128906 2614.199219 3817.808594 2633.378906 3819.320312 2652.601562 M 3122.199219 2652.601562 C 3122.371094 2642.941406 3123.109375 2633.199219 3124.578125 2623.5 C 3125.230469 2618.621094 3126.269531 2613.839844 3127.160156 2608.941406 C 3127.660156 2606.511719 3128.28125 2604.128906 3128.851562 2601.699219 L 3129.730469 2598.070312 L 3130.71875 2594.46875 L 3132.75 2587.230469 L 3135.121094 2580.089844 C 3135.890625 2577.679688 3136.75 2575.320312 3137.648438 2572.960938 C 3138.539062 2570.601562 3139.398438 2568.199219 3140.339844 2565.839844 C 3144.191406 2556.460938 3148.480469 2547.140625 3153.429688 2538.109375 C 3155.988281 2533.671875 3159.738281 2530.199219 3163.441406 2526.761719 C 3165.308594 2525.050781 3167.039062 2523.21875 3168.738281 2521.359375 L 3174.03125 2515.980469 L 3176.691406 2513.300781 L 3179.421875 2510.699219 C 3181.25 2508.96875 3183.050781 2507.210938 3184.898438 2505.519531 C 3188.648438 2502.179688 3192.359375 2498.78125 3196.238281 2495.609375 C 3198.648438 2493.570312 3201.089844 2491.570312 3203.550781 2489.609375 C 3204.890625 2515.921875 3205.339844 2542.5 3204.339844 2567.550781 C 3203.628906 2568.539062 3202.941406 2569.550781 3202.179688 2570.488281 C 3200.921875 2572.148438 3199.378906 2573.570312 3197.78125 2574.941406 C 3196.140625 2576.289062 3194.378906 2577.539062 3192.671875 2578.859375 C 3190.921875 2580.140625 3189.308594 2581.550781 3187.609375 2582.898438 C 3184.160156 2585.570312 3180.941406 2588.460938 3177.558594 2591.308594 C 3170.960938 2597.101562 3164.488281 2603.230469 3158.199219 2609.710938 C 3151.910156 2616.199219 3145.71875 2623 3139.808594 2630.191406 C 3133.679688 2637.289062 3128.140625 2644.890625 3122.199219 2652.601562 "/>
<path fill-rule="nonzero" fill="rgb(73.852539%, 73.396301%, 73.28186%)" fill-opacity="1" d="M 3204.339844 2567.550781 C 3205.339844 2542.5 3204.890625 2515.921875 3203.550781 2489.609375 C 3205.820312 2487.800781 3208.109375 2486.019531 3210.429688 2484.28125 C 3211.910156 2509.5 3212.441406 2535.050781 3211.390625 2559.300781 C 3209.460938 2561.261719 3207.578125 2563.25 3205.921875 2565.460938 C 3205.371094 2566.128906 3204.851562 2566.839844 3204.339844 2567.550781 "/>
<path fill-rule="nonzero" fill="rgb(97.877502%, 97.859192%, 98.634338%)" fill-opacity="1" d="M 1695.808594 2410.25 L 1376.578125 2410.25 C 1389.941406 2405.441406 1403.511719 2401.289062 1417.210938 2397.769531 C 1455.289062 2387.988281 1494.429688 2383.269531 1533.53125 2383.019531 C 1534.511719 2383.011719 1535.488281 2383.011719 1536.480469 2383.011719 C 1574.609375 2383.011719 1612.730469 2387.5 1649.949219 2396.5 C 1659.5 2398.769531 1668.960938 2401.488281 1678.371094 2404.371094 C 1684.21875 2406.230469 1690.03125 2408.179688 1695.808594 2410.25 "/>
<path fill-rule="nonzero" fill="rgb(90.075684%, 89.855957%, 89.784241%)" fill-opacity="1" d="M 1881.929688 2634.070312 C 1869.78125 2619.070312 1857.46875 2604.949219 1844.660156 2591.878906 C 1843.050781 2590.25 1841.488281 2588.601562 1839.859375 2587.011719 L 1834.949219 2582.28125 L 1830.089844 2577.601562 C 1828.46875 2576.058594 1826.738281 2574.601562 1825.070312 2573.101562 C 1818.511719 2567.070312 1811.710938 2561.410156 1804.859375 2556.019531 C 1803.128906 2554.691406 1801.621094 2553.199219 1800.339844 2551.519531 C 1799.050781 2549.851562 1798.019531 2547.949219 1796.738281 2546.28125 C 1795.488281 2544.578125 1794.039062 2543.039062 1792.648438 2541.449219 L 1788.460938 2536.71875 L 1779.691406 2527.671875 C 1778.261719 2526.121094 1776.671875 2524.769531 1775.148438 2523.320312 L 1770.558594 2519.039062 C 1758.171875 2507.820312 1744.871094 2497.78125 1730.789062 2489.21875 C 1727.238281 2487.140625 1723.78125 2484.871094 1720.089844 2483.089844 L 1714.628906 2480.238281 L 1711.910156 2478.808594 C 1711 2478.328125 1710 2477.898438 1709.039062 2477.441406 C 1701.390625 2473.730469 1693.5 2470.460938 1685.558594 2467.300781 C 1677.601562 2464.191406 1669.5 2461.390625 1661.328125 2458.78125 C 1653.121094 2456.28125 1644.859375 2453.898438 1636.488281 2451.910156 C 1603.898438 2444.03125 1570.199219 2440.03125 1536.511719 2440.03125 C 1535.609375 2440.03125 1534.71875 2440.03125 1533.820312 2440.039062 C 1499.238281 2440.261719 1464.648438 2444.441406 1431.339844 2453.019531 C 1398.050781 2461.558594 1365.941406 2474.300781 1336.78125 2491.578125 C 1322.230469 2500.238281 1308.339844 2509.898438 1295.519531 2520.738281 C 1292.269531 2523.390625 1289.191406 2526.230469 1286.050781 2529.011719 C 1284.511719 2530.421875 1283.019531 2531.890625 1281.488281 2533.320312 L 1279.210938 2535.480469 L 1277.011719 2537.710938 C 1274.089844 2540.699219 1271.050781 2543.578125 1268.519531 2546.921875 C 1267.199219 2548.550781 1266.078125 2550.328125 1264.789062 2551.960938 C 1263.519531 2553.609375 1261.980469 2555.03125 1260.378906 2556.410156 C 1258.75 2557.75 1256.980469 2559.011719 1255.269531 2560.320312 C 1253.53125 2561.609375 1251.910156 2563.011719 1250.210938 2564.359375 C 1246.761719 2567.039062 1243.539062 2569.929688 1240.171875 2572.769531 C 1233.558594 2578.558594 1227.089844 2584.691406 1220.800781 2591.179688 C 1214.519531 2597.671875 1208.320312 2604.46875 1202.421875 2611.660156 C 1196.289062 2618.761719 1190.738281 2626.351562 1184.808594 2634.070312 C 1184.96875 2624.410156 1185.71875 2614.671875 1187.191406 2604.96875 C 1187.839844 2600.089844 1188.871094 2595.308594 1189.769531 2590.398438 C 1190.269531 2587.980469 1190.890625 2585.589844 1191.449219 2583.171875 L 1192.328125 2579.539062 L 1193.320312 2575.941406 L 1195.351562 2568.691406 L 1197.71875 2561.558594 C 1198.5 2559.148438 1199.351562 2556.78125 1200.25 2554.429688 C 1201.140625 2552.058594 1202.011719 2549.671875 1202.941406 2547.300781 C 1206.800781 2537.929688 1211.089844 2528.601562 1216.03125 2519.578125 C 1218.601562 2515.140625 1222.339844 2511.660156 1226.050781 2508.230469 C 1227.910156 2506.519531 1229.640625 2504.691406 1231.339844 2502.828125 L 1236.628906 2497.449219 L 1239.289062 2494.761719 L 1242.019531 2492.160156 C 1243.851562 2490.441406 1245.648438 2488.679688 1247.511719 2486.988281 C 1251.261719 2483.648438 1254.960938 2480.25 1258.839844 2477.070312 C 1274.179688 2464.121094 1290.640625 2452.671875 1307.75 2442.488281 C 1329.699219 2429.5 1352.808594 2418.820312 1376.578125 2410.25 L 1695.808594 2410.25 C 1699.320312 2411.511719 1702.808594 2412.808594 1706.28125 2414.171875 C 1715.460938 2417.808594 1724.601562 2421.621094 1733.53125 2425.941406 C 1734.648438 2426.480469 1735.769531 2426.96875 1736.898438 2427.550781 L 1740.300781 2429.320312 L 1747.089844 2432.859375 C 1751.691406 2435.128906 1755.96875 2437.878906 1760.371094 2440.46875 C 1777.78125 2451.039062 1793.988281 2463.320312 1808.910156 2476.828125 L 1814.421875 2481.96875 C 1816.238281 2483.699219 1818.140625 2485.359375 1819.851562 2487.191406 C 1823.339844 2490.78125 1826.859375 2494.359375 1830.308594 2497.980469 L 1835.289062 2503.589844 C 1836.960938 2505.449219 1838.570312 2507.359375 1840.371094 2509.109375 C 1842.128906 2510.890625 1843.890625 2512.660156 1845.53125 2514.550781 C 1847.160156 2516.441406 1848.539062 2518.539062 1849.699219 2520.789062 C 1850.890625 2523.03125 1851.929688 2525.359375 1852.980469 2527.671875 L 1856.109375 2534.570312 C 1858.25 2539.109375 1860.050781 2543.820312 1861.890625 2548.46875 C 1862.769531 2550.808594 1863.71875 2553.109375 1864.539062 2555.46875 L 1866.941406 2562.539062 L 1869.300781 2569.570312 C 1870.019531 2571.941406 1870.660156 2574.339844 1871.328125 2576.710938 C 1876.738281 2595.660156 1880.410156 2614.839844 1881.929688 2634.070312 "/>
<path fill-rule="nonzero" fill="rgb(97.877502%, 97.859192%, 98.634338%)" fill-opacity="1" d="M 3809.339844 2798.019531 C 3809.339844 2798.019531 3813.621094 2829.378906 3809.339844 2855.039062 C 3809.339844 2855.039062 3934.789062 2860.738281 3993.25 2798.019531 L 3998.949219 2776.628906 C 3998.949219 2776.628906 3866.371094 2822.25 3809.339844 2798.019531 "/>
<path fill-rule="nonzero" fill="rgb(94.334412%, 94.387817%, 95.904541%)" fill-opacity="1" d="M 4032.949219 2692.21875 L 4015.371094 2741.449219 L 4007.46875 2763.570312 C 3948.570312 2772.511719 3948.269531 2734.691406 3949.519531 2723.058594 C 3949.75 2720.980469 3950.019531 2719.738281 3950.019531 2719.738281 L 4032.949219 2692.21875 "/>
<path fill-rule="nonzero" fill="rgb(76.957703%, 76.681519%, 78.713989%)" fill-opacity="1" d="M 4032.949219 2692.21875 L 4015.371094 2741.449219 L 3960.710938 2728.769531 L 3949.519531 2723.058594 C 3949.75 2720.980469 3950.019531 2719.738281 3950.019531 2719.738281 L 4032.949219 2692.21875 "/>
<path fill-rule="nonzero" fill="rgb(73.960876%, 72.816467%, 74.369812%)" fill-opacity="1" d="M 3960.269531 2751.191406 C 3959.210938 2751.191406 3958.261719 2750.75 3957.460938 2749.78125 C 3950.109375 2740.871094 3951.179688 2727.75 3951.640625 2724.140625 L 3960.710938 2728.769531 L 3978.171875 2732.820312 C 3972.019531 2742.339844 3965.03125 2751.191406 3960.269531 2751.191406 "/>
<path fill-rule="nonzero" fill="rgb(59.736633%, 59.887695%, 61.711121%)" fill-opacity="1" d="M 3978.171875 2732.820312 L 3960.710938 2728.769531 L 3951.640625 2724.140625 C 3951.71875 2723.53125 3951.78125 2723.191406 3951.78125 2723.191406 L 3991.359375 2709.71875 C 3991.359375 2709.71875 3985.339844 2721.730469 3978.171875 2732.820312 "/>
<path fill-rule="nonzero" fill="rgb(12.860107%, 11.213684%, 11.195374%)" fill-opacity="1" d="M 3950.359375 2720.339844 C 3950.359375 2720.339844 3947.441406 2736.511719 3956.03125 2746.921875 C 3964.628906 2757.339844 3989.929688 2706.871094 3989.929688 2706.871094 L 3950.359375 2720.339844 "/>
<path fill-rule="nonzero" fill="rgb(100%, 100%, 100%)" fill-opacity="1" d="M 1059.351562 2778.058594 L 998.886719 2819.121094 C 998.886719 2819.121094 1024.089844 2849.601562 1121.550781 2863.011719 L 1189.078125 2873.570312 C 1189.078125 2873.570312 1192.898438 2846.21875 1200.261719 2815.699219 C 1200.261719 2815.699219 1073.609375 2786.609375 1059.351562 2778.058594 "/>
<path fill-rule="nonzero" fill="rgb(11.149597%, 11.61499%, 9.934998%)" fill-opacity="1" d="M 2359.5 2300.480469 C 2359.5 2300.480469 2321.199219 2044.800781 2306.300781 1970.839844 L 2301.050781 1919.839844 L 2362.851562 1921.109375 C 2500.75 1926.449219 2623.390625 1945.910156 2749.519531 2001.121094 C 2862.550781 2050.609375 2971.328125 2119.910156 3082.070312 2213 L 3186.871094 2301.089844 L 2359.5 2300.480469 "/>
<g clip-path="url(#clip-0)">
<g clip-path="url(#clip-1)">
<g clip-path="url(#clip-2)">
<path fill-rule="nonzero" fill="url(#linear-pattern-0)" d="M 2394.804688 1799.929688 L 2287.933594 2234.660156 L 3010.375 2412.261719 L 3117.246094 1977.527344 Z M 2394.804688 1799.929688 "/>
</g>
</g>
</g>
<path fill-rule="nonzero" fill="rgb(97.877502%, 97.859192%, 98.634338%)" fill-opacity="1" d="M 1863.039062 2836.390625 L 1943.230469 2873.570312 L 3079.429688 2877.851562 L 3149.859375 2857.121094 L 3153.558594 2937.730469 L 1849.140625 2937.730469 C 1849.140625 2937.730469 1859.828125 2866.199219 1863.039062 2836.390625 "/>
<path fill-rule="nonzero" fill="rgb(48.152161%, 48.760986%, 49.186707%)" fill-opacity="1" d="M 3190.960938 2657.289062 C 3187.851562 2663.609375 3184.929688 2670.101562 3182.191406 2676.75 C 3102.5 2778.308594 3083.808594 2872.800781 3083.621094 2873.789062 C 3083.398438 2874.96875 3082.769531 2875.980469 3081.898438 2876.699219 C 3081.03125 2877.421875 3079.921875 2877.851562 3078.71875 2877.851562 L 1959.621094 2877.851562 C 1957.078125 2877.851562 1954.949219 2875.941406 1954.660156 2873.429688 C 1949.839844 2831.058594 1930.570312 2778.980469 1908.609375 2730.808594 C 1886.660156 2682.640625 1862 2638.378906 1846.410156 2611.648438 C 1837.121094 2595.710938 1824.320312 2582.089844 1808.949219 2571.871094 C 1754.558594 2535.75 1710.058594 2499.789062 1676.410156 2464.769531 C 1658.691406 2446.320312 1643.921875 2428.089844 1632.21875 2410.25 C 1623.519531 2396.980469 1616.519531 2383.941406 1611.261719 2371.160156 C 1594.808594 2331.25 1599.628906 2304.558594 1603.058594 2293.679688 C 1604 2290.730469 1607.339844 2289.351562 1610.109375 2290.738281 L 1610.140625 2290.761719 L 1610.148438 2290.769531 C 1612.300781 2291.878906 1613.339844 2294.351562 1612.628906 2296.671875 C 1609.78125 2305.828125 1605.089844 2330.800781 1621.03125 2368.679688 C 1626.070312 2380.660156 1633.488281 2394.558594 1644.339844 2410.25 C 1674.53125 2453.890625 1731.308594 2511.261719 1837.550781 2578.53125 L 1838.5 2579.140625 L 1839.101562 2580.078125 C 1843.578125 2587.199219 1946.351562 2751.179688 1963.429688 2863.621094 C 1963.800781 2866.058594 1965.851562 2867.871094 1968.320312 2867.871094 L 3070.789062 2867.871094 C 3073.078125 2867.871094 3075.070312 2866.320312 3075.628906 2864.109375 C 3082.230469 2837.820312 3108.761719 2749.320312 3184.300781 2658.238281 C 3185.949219 2656.238281 3188.851562 2655.871094 3190.960938 2657.289062 "/>
<path fill-rule="nonzero" fill="rgb(77.690125%, 77.146912%, 76.358032%)" fill-opacity="1" d="M 3012.53125 2184.800781 C 3028.320312 2192.929688 3040.46875 2209.238281 3053.28125 2221.238281 C 3059.5 2227.078125 3065.191406 2234.378906 3065.71875 2242.898438 C 3067.441406 2270.390625 3032.078125 2264.769531 3015.148438 2264.769531 C 2998.058594 2264.769531 2980.980469 2264.769531 2963.898438 2264.78125 C 2962.898438 2264.78125 2961.839844 2264.769531 2960.988281 2264.238281 C 2959.71875 2263.46875 2959.308594 2261.871094 2959.019531 2260.421875 C 2956.449219 2247.589844 2955.128906 2234.539062 2954.578125 2221.46875 C 2954.359375 2216.210938 2954.28125 2210.851562 2955.699219 2205.769531 C 2958.691406 2195.148438 2969.921875 2189.199219 2979.25 2184.898438 C 2992.488281 2178.789062 3003.140625 2179.949219 3012.53125 2184.800781 "/>
<path fill-rule="nonzero" fill="rgb(11.149597%, 11.61499%, 9.934998%)" fill-opacity="1" d="M 1575.261719 2301.109375 L 1577.058594 2249.46875 C 1578.378906 2211.769531 1588.5 2177.199219 1607.128906 2146.710938 C 1623.929688 2119.230469 1647.261719 2095.710938 1676.480469 2076.828125 C 1745.410156 2032.261719 1808.328125 2000.148438 1868.828125 1978.640625 C 1981.769531 1938.488281 2103.300781 1919.789062 2251.269531 1919.789062 C 2254.789062 1919.789062 2258.289062 1919.800781 2261.820312 1919.820312 L 2306.261719 1920.078125 L 2311.121094 1964.261719 C 2318.578125 2032.058594 2331.191406 2096.289062 2338.121094 2159.351562 L 2359.5 2300.480469 L 1575.261719 2301.109375 "/>
<g clip-path="url(#clip-3)">
<g clip-path="url(#clip-4)">
<g clip-path="url(#clip-5)">
<path fill-rule="nonzero" fill="url(#linear-pattern-1)" d="M 1664.859375 1814.625 L 1561.484375 2235.121094 L 2254.53125 2405.496094 L 2357.902344 1985 Z M 1664.859375 1814.625 "/>
</g>
</g>
</g>
<path fill-rule="nonzero" fill="rgb(48.152161%, 48.760986%, 49.186707%)" fill-opacity="1" d="M 1255.089844 2656.96875 L 1149.75 2598.441406 C 1133.921875 2589.648438 1120.851562 2576.671875 1111.949219 2560.898438 L 1043.601562 2439.789062 L 1052.289062 2434.890625 L 1120.640625 2555.988281 C 1128.640625 2570.160156 1140.378906 2581.820312 1154.601562 2589.71875 L 1259.941406 2648.238281 L 1255.089844 2656.96875 "/>
<path fill-rule="nonzero" fill="rgb(93.283081%, 12.93335%, 30.314636%)" fill-opacity="1" d="M 956.574219 2456.800781 L 962.621094 2380.179688 C 963.019531 2375.121094 970.089844 2372.550781 975.3125 2375.570312 C 996.882812 2388.070312 1042.269531 2413.730469 1061.648438 2419.941406 C 1061.648438 2419.941406 1098.578125 2442.230469 1058.410156 2452.570312 C 1058.410156 2452.570312 994.40625 2462.839844 966.203125 2469.359375 C 960.371094 2470.710938 954.582031 2466.539062 955.574219 2461.679688 L 956.574219 2456.800781 "/>
<path fill-rule="nonzero" fill="rgb(90.78064%, 90.719604%, 90.112305%)" fill-opacity="1" d="M 955.285156 2554.238281 L 945.304688 2634.070312 C 945.304688 2634.070312 1059.351562 2669.710938 1163.421875 2652.601562 L 955.285156 2554.238281 "/>
<path fill-rule="nonzero" fill="rgb(55.513%, 55.873108%, 55.740356%)" fill-opacity="1" d="M 1861.679688 2411.691406 C 1861.679688 2425.871094 1846.578125 2437.359375 1827.941406 2437.359375 C 1809.308594 2437.359375 1794.199219 2425.871094 1794.199219 2411.691406 C 1794.199219 2397.511719 1809.308594 2386.019531 1827.941406 2386.019531 C 1846.578125 2386.019531 1861.679688 2397.511719 1861.679688 2411.691406 "/>
<path fill-rule="nonzero" fill="rgb(68.188477%, 68.09082%, 67.623901%)" fill-opacity="1" d="M 1770.730469 2410.960938 C 1780.261719 2407.890625 1789.800781 2406.359375 1799.339844 2405.210938 C 1808.871094 2404.128906 1818.410156 2403.628906 1827.941406 2403.621094 C 1837.480469 2403.609375 1847.011719 2404.109375 1856.550781 2405.191406 C 1866.078125 2406.328125 1875.621094 2407.871094 1885.160156 2410.960938 C 1875.621094 2414.039062 1866.078125 2415.578125 1856.550781 2416.71875 C 1847.011719 2417.800781 1837.480469 2418.300781 1827.941406 2418.289062 C 1818.410156 2418.28125 1808.871094 2417.78125 1799.339844 2416.699219 C 1789.800781 2415.550781 1780.261719 2414.019531 1770.730469 2410.960938 "/>
<path fill-rule="nonzero" fill="rgb(55.513%, 55.873108%, 55.740356%)" fill-opacity="1" d="M 2545.589844 2411.691406 C 2545.589844 2425.871094 2530.488281 2437.359375 2511.851562 2437.359375 C 2493.21875 2437.359375 2478.109375 2425.871094 2478.109375 2411.691406 C 2478.109375 2397.511719 2493.21875 2386.019531 2511.851562 2386.019531 C 2530.488281 2386.019531 2545.589844 2397.511719 2545.589844 2411.691406 "/>
<path fill-rule="nonzero" fill="rgb(68.188477%, 68.09082%, 67.623901%)" fill-opacity="1" d="M 2454.640625 2410.960938 C 2464.179688 2407.890625 2473.710938 2406.359375 2483.25 2405.210938 C 2492.78125 2404.128906 2502.320312 2403.628906 2511.851562 2403.621094 C 2521.390625 2403.609375 2530.921875 2404.109375 2540.460938 2405.191406 C 2550 2406.328125 2559.53125 2407.871094 2569.070312 2410.960938 C 2559.53125 2414.039062 2550 2415.578125 2540.460938 2416.71875 C 2530.921875 2417.800781 2521.390625 2418.300781 2511.851562 2418.289062 C 2502.320312 2418.28125 2492.78125 2417.78125 2483.25 2416.699219 C 2473.710938 2415.550781 2464.179688 2414.019531 2454.640625 2410.960938 "/>
<path fill-rule="nonzero" fill="rgb(100%, 99.978638%, 99.581909%)" fill-opacity="1" d="M 3816.46875 2378.808594 C 3816.46875 2378.808594 3838.960938 2486.25 4048.839844 2513.738281 C 4048.839844 2513.738281 4041.351562 2358.820312 3816.46875 2378.808594 "/>
<path fill-rule="nonzero" fill="rgb(69.136047%, 68.986511%, 68.397522%)" fill-opacity="1" d="M 3820.160156 2381.359375 C 3822.710938 2389.21875 3831.46875 2410.789062 3856.289062 2434.261719 C 3884.75 2461.171875 3940.628906 2496.070312 4045.648438 2510.429688 C 4044.121094 2498.339844 4036.261719 2456.800781 3998.660156 2424.078125 C 3958.699219 2389.308594 3898.660156 2374.941406 3820.160156 2381.359375 M 4051.859375 2517.011719 L 4048.46875 2516.570312 C 3939.289062 2502.269531 3881.359375 2465.96875 3851.980469 2438.039062 C 3819.851562 2407.480469 3813.921875 2380.53125 3813.679688 2379.398438 L 3813.019531 2376.261719 L 3816.21875 2375.96875 C 3898.070312 2368.699219 3960.738281 2383.460938 4002.488281 2419.859375 C 4048.589844 2460.03125 4051.589844 2511.429688 4051.691406 2513.601562 L 4051.859375 2517.011719 "/>
<path fill-rule="nonzero" fill="rgb(86.372375%, 86.120605%, 84.492493%)" fill-opacity="1" d="M 4045.648438 2510.429688 C 4041.46875 2509.859375 4037.378906 2509.261719 4033.351562 2508.628906 L 3951.898438 2478.679688 L 3889.359375 2459.539062 C 3875.550781 2450.898438 3864.71875 2442.230469 3856.289062 2434.261719 C 3850.011719 2428.328125 3844.769531 2422.511719 3840.390625 2417.011719 L 3872.070312 2401.699219 C 3872.070312 2401.699219 3893.449219 2411.679688 3904.859375 2437.339844 L 3916.261719 2454.449219 L 3923.78125 2450.851562 C 3927.03125 2449.300781 3930.429688 2448.570312 3933.761719 2448.570312 C 3943.890625 2448.570312 3953.398438 2455.269531 3956.179688 2465.851562 L 3998.949219 2425.929688 L 4045.320312 2508.078125 C 4045.449219 2508.960938 4045.558594 2509.738281 4045.648438 2510.429688 "/>
<path fill-rule="nonzero" fill="rgb(71.115112%, 71.003723%, 69.946289%)" fill-opacity="1" d="M 4048.839844 2514.320312 L 4033.351562 2508.628906 C 4037.378906 2509.261719 4041.46875 2509.859375 4045.648438 2510.429688 C 4045.558594 2509.738281 4045.449219 2508.960938 4045.320312 2508.078125 L 4048.839844 2514.320312 M 3889.359375 2459.539062 L 3882.050781 2457.300781 L 3837.75 2418.289062 L 3840.390625 2417.011719 C 3844.769531 2422.511719 3850.011719 2428.328125 3856.289062 2434.261719 C 3864.71875 2442.230469 3875.550781 2450.898438 3889.359375 2459.539062 "/>
<path fill-rule="nonzero" fill="rgb(65.820312%, 14.840698%, 12.896729%)" fill-opacity="1" d="M 3869.109375 2653.378906 L 3803.460938 2653.378906 C 3796.011719 2653.378906 3789.96875 2647.339844 3789.96875 2639.890625 L 3789.96875 2628.410156 C 3789.96875 2620.960938 3796.011719 2614.921875 3803.460938 2614.921875 L 3869.109375 2614.921875 C 3876.558594 2614.921875 3882.601562 2620.960938 3882.601562 2628.410156 L 3882.601562 2639.890625 C 3882.601562 2647.339844 3876.558594 2653.378906 3869.109375 2653.378906 "/>
<path fill-rule="nonzero" fill="rgb(91.27655%, 22.850037%, 12.451172%)" fill-opacity="1" d="M 3872.828125 2651.890625 L 3807.191406 2651.890625 C 3799.738281 2651.890625 3793.699219 2645.851562 3793.699219 2638.398438 L 3793.699219 2626.921875 C 3793.699219 2619.460938 3799.738281 2613.429688 3807.191406 2613.429688 L 3872.828125 2613.429688 C 3880.289062 2613.429688 3886.320312 2619.460938 3886.320312 2626.921875 L 3886.320312 2638.398438 C 3886.320312 2645.851562 3880.289062 2651.890625 3872.828125 2651.890625 "/>
<path fill-rule="nonzero" fill="rgb(99.90387%, 99.342346%, 93.281555%)" fill-opacity="1" d="M 3840.011719 2624 C 3840.011719 2626.660156 3834.289062 2628.808594 3827.230469 2628.808594 C 3820.179688 2628.808594 3814.460938 2626.660156 3814.460938 2624 C 3814.460938 2621.351562 3820.179688 2619.199219 3827.230469 2619.199219 C 3834.289062 2619.199219 3840.011719 2621.351562 3840.011719 2624 "/>
</svg>
